<!-- Shape: Group -->
<svg xmlns:xlink="http://www.w3.org/1999/xlink" fill="none" width="187" xmlns="http://www.w3.org/2000/svg" style="-webkit-print-color-adjust:exact" id="screenshot-915abba8-9d54-8094-8002-4fbe925e5975" version="1.1" viewBox="447 86 187 209" height="209">
  <g id="shape-915abba8-9d54-8094-8002-4fbe925e5975" rx="0" ry="0">
    <g id="shape-915abba8-9d54-8094-8002-4fbdfcae18c4">
      <g class="fills" id="fills-915abba8-9d54-8094-8002-4fbdfcae18c4">
        <path rx="0" ry="0" style="fill:#7a5997;fill-opacity:1" d="M542.000,87.000L571.000,117.000L504.000,183.000L504.000,187.000L542.000,225.000L483.000,225.000L448.000,189.000L448.000,180.000L542.000,87.000Z">
        </path>
      </g>
      <g id="strokes-915abba8-9d54-8094-8002-4fbdfcae18c4" class="strokes">
        <g class="stroke-shape">
          <path rx="0" ry="0" style="fill:none;fill-opacity:none;stroke-width:2;stroke:#7a5997;stroke-opacity:1;stroke-dasharray:" d="M542.000,87.000L571.000,117.000L504.000,183.000L504.000,187.000L542.000,225.000L483.000,225.000L448.000,189.000L448.000,180.000L542.000,87.000Z">
          </path>
        </g>
      </g>
    </g>
    <g id="shape-915abba8-9d54-8094-8002-4fbe4fc6dc16">
      <g class="fills" id="fills-915abba8-9d54-8094-8002-4fbe4fc6dc16">
        <path rx="0" ry="0" style="fill:#63ae7b;fill-opacity:1" d="M539.000,294.000L510.000,264.000L577.000,198.000L577.000,194.000L539.000,156.000L598.000,156.000L633.000,192.000L633.000,201.000L539.000,294.000Z">
        </path>
      </g>
      <g id="strokes-915abba8-9d54-8094-8002-4fbe4fc6dc16" class="strokes">
        <g class="stroke-shape">
          <path rx="0" ry="0" style="fill:none;fill-opacity:none;stroke-width:2;stroke:#63ae7b;stroke-opacity:1;stroke-dasharray:" d="M539.000,294.000L510.000,264.000L577.000,198.000L577.000,194.000L539.000,156.000L598.000,156.000L633.000,192.000L633.000,201.000L539.000,294.000Z">
          </path>
        </g>
      </g>
    </g>
  </g>
</svg>